<svg width="1000" height="1000" viewBox="0 0 1000 1000" fill="none" xmlns="http://www.w3.org/2000/svg">
<path d="M0 350C0 156.7 156.7 0 350 0H650C843.3 0 1000 156.7 1000 350V650C1000 843.3 843.3 1000 650 1000H350C156.7 1000 0 843.3 0 650V350Z" fill="white"/>
<path d="M150 266.764C150 202.277 202.277 150 266.764 150H500C693.3 150 850 306.7 850 500C850 693.3 693.3 850 500 850H266.764C260.814 850 254.969 849.555 249.259 848.697C329.342 792.445 406.08 706.663 465.347 599.697L499.887 634.237C521.66 656.01 558.838 646.048 566.808 616.305L616.12 432.272C624.089 402.529 596.873 375.312 567.13 383.282L383.096 432.593C353.353 440.563 343.391 477.741 365.165 499.515L401.054 535.404C364.925 565.38 324.595 593.412 280.628 618.496C237.384 643.167 193.477 663.359 150 679.094V266.764Z" fill="#0F6BFD"/>
</svg>
