<svg width="532" height="532" viewBox="0 0 532 532" fill="none" xmlns="http://www.w3.org/2000/svg">
<g clip-path="url(#clip0_75_2)">
<rect width="532" height="532" rx="210" fill="white"/>
<path fill-rule="evenodd" clip-rule="evenodd" d="M111 162.71C111 134.151 134.151 111 162.71 111H266C351.604 111 421 180.396 421 266C421 351.604 351.604 421 266 421H162.71C160.075 421 157.486 420.803 154.957 420.423C190.423 395.512 224.407 357.522 250.654 310.151L269.274 328.772C277.439 336.937 291.381 333.201 294.37 322.047L318.641 231.465C321.63 220.311 311.424 210.105 300.27 213.093L209.687 237.365C198.534 240.354 194.798 254.296 202.963 262.46L222.181 281.679C206.181 294.954 188.321 307.368 168.85 318.477C149.699 329.402 130.254 338.344 111 345.313V162.71Z" fill="#292930"/>
</g>
<defs>
<clipPath id="clip0_75_2">
<rect width="532" height="532" fill="white"/>
</clipPath>
</defs>
</svg>
