<svg width="700" height="700" viewBox="0 0 700 700" fill="none" xmlns="http://www.w3.org/2000/svg">
<path fill-rule="evenodd" clip-rule="evenodd" d="M0 116.764C0 52.277 52.277 0 116.764 0H350C543.3 0 700 156.7 700 350C700 543.3 543.3 700 350 700H116.764C110.814 700 104.969 699.555 99.2586 698.697C179.342 642.445 256.08 556.663 315.347 449.697L349.887 484.237C371.66 506.01 408.838 496.048 416.808 466.305L466.12 282.272C474.089 252.529 446.873 225.312 417.13 233.282L233.096 282.593C203.353 290.563 193.391 327.741 215.165 349.515L251.054 385.404C214.925 415.38 174.595 443.412 130.628 468.496C87.3844 493.167 43.4766 513.359 0 529.094V116.764Z" fill="#FAFAFA"/>
</svg>
